<svg id="visual" viewBox="0 0 960 540" width="960" height="540" xmlns="http://www.w3.org/2000/svg" xmlns:xlink="http://www.w3.org/1999/xlink" version="1.1"><path d="M0 458L22.8 461.2C45.7 464.3 91.3 470.7 137 470.3C182.7 470 228.3 463 274 460.3C319.7 457.7 365.3 459.3 411.2 463.3C457 467.3 503 473.7 548.8 478C594.7 482.3 640.3 484.7 686 483.7C731.7 482.7 777.3 478.3 823 477C868.7 475.7 914.3 477.3 937.2 478.2L960 479L960 541L937.2 541C914.3 541 868.7 541 823 541C777.3 541 731.7 541 686 541C640.3 541 594.7 541 548.8 541C503 541 457 541 411.2 541C365.3 541 319.7 541 274 541C228.3 541 182.7 541 137 541C91.3 541 45.7 541 22.8 541L0 541Z" fill="#fa7268"></path><path d="M0 481L22.8 482.3C45.7 483.7 91.3 486.3 137 486.2C182.7 486 228.3 483 274 482.8C319.7 482.7 365.3 485.3 411.2 489.5C457 493.7 503 499.3 548.8 501.3C594.7 503.3 640.3 501.7 686 500.2C731.7 498.7 777.3 497.3 823 496.7C868.7 496 914.3 496 937.2 496L960 496L960 541L937.2 541C914.3 541 868.7 541 823 541C777.3 541 731.7 541 686 541C640.3 541 594.7 541 548.8 541C503 541 457 541 411.2 541C365.3 541 319.7 541 274 541C228.3 541 182.7 541 137 541C91.3 541 45.7 541 22.8 541L0 541Z" fill="#e34c67"></path><path d="M0 504L22.8 503.5C45.7 503 91.3 502 137 501.5C182.7 501 228.3 501 274 503C319.7 505 365.3 509 411.2 509.7C457 510.3 503 507.7 548.8 505.5C594.7 503.3 640.3 501.7 686 504.7C731.7 507.7 777.3 515.3 823 516.5C868.7 517.7 914.3 512.3 937.2 509.7L960 507L960 541L937.2 541C914.3 541 868.7 541 823 541C777.3 541 731.7 541 686 541C640.3 541 594.7 541 548.8 541C503 541 457 541 411.2 541C365.3 541 319.7 541 274 541C228.3 541 182.7 541 137 541C91.3 541 45.7 541 22.8 541L0 541Z" fill="#c62368"></path></svg>